# Blender 3.3.0
# www.blender.org
o Cube
v -1.000000 -1.000000 1.000000
v -1.000000 1.000000 1.000000
v -1.000000 -1.000000 -1.000000
v -1.000000 1.000000 -1.000000
v 1.000000 -1.000000 1.000000
v 1.000000 1.000000 1.000000
v 1.000000 -1.000000 -1.000000
v 1.000000 1.000000 -1.000000
v 0.333333 -1.000000 -1.000000
v -0.333333 -1.000000 -1.000000
v -0.333333 1.000000 -1.000000
v 0.333333 1.000000 -1.000000
v -0.333333 -1.000000 1.000000
v 0.333333 -1.000000 1.000000
v 0.333333 1.000000 1.000000
v -0.333333 1.000000 1.000000
v -1.000000 -0.333333 1.000000
v -1.000000 0.333333 1.000000
v -1.000000 0.333333 -1.000000
v -1.000000 -0.333333 -1.000000
v 1.000000 0.333333 -1.000000
v 1.000000 -0.333333 -1.000000
v 1.000000 0.333333 1.000000
v 1.000000 -0.333333 1.000000
v 0.333333 0.333333 1.000000
v 0.333333 -0.333333 1.000000
v -0.333333 0.333333 1.000000
v -0.333333 -0.333333 1.000000
v -0.333333 0.333333 -1.000000
v -0.333333 -0.333333 -1.000000
v 0.333333 0.333333 -1.000000
v 0.333333 -0.333333 -1.000000
v -1.000000 -1.000000 -0.333333
v -1.000000 -1.000000 0.333333
v -1.000000 1.000000 0.333333
v -1.000000 1.000000 -0.333333
v 1.000000 -1.000000 0.333333
v 1.000000 -1.000000 -0.333333
v 1.000000 1.000000 -0.333333
v 1.000000 1.000000 0.333333
v 0.333333 1.000000 -0.333333
v 0.333333 1.000000 0.333333
v -0.333333 1.000000 -0.333333
v -0.333333 1.000000 0.333333
v -0.333333 -1.000000 -0.333333
v -0.333333 -1.000000 0.333333
v 0.333333 -1.000000 -0.333333
v 0.333333 -1.000000 0.333333
v 1.000000 -0.333333 -0.333333
v 1.000000 -0.333333 0.333333
v 1.000000 0.333333 -0.333333
v 1.000000 0.333333 0.333333
v -1.000000 -0.333333 0.333333
v -1.000000 -0.333333 -0.333333
v -1.000000 0.333333 0.333333
v -1.000000 0.333333 -0.333333
v 0.333333 -0.333333 0.333333
v 0.333333 -0.333333 -0.333333
v -0.333333 -0.333333 -0.333333
v -0.333333 -0.333333 0.333333
v -0.333333 0.333333 -0.333333
v -0.333333 0.333333 0.333333
v 0.333333 0.333333 -0.333333
v 0.333333 0.333333 0.333333
vn -1.0000 -0.0000 -0.0000
vn -0.0000 -0.0000 -1.0000
vn 1.0000 -0.0000 -0.0000
vn -0.0000 -0.0000 1.0000
vn -0.0000 -1.0000 -0.0000
vn -0.0000 1.0000 -0.0000
s 0
f 36//1 19//1 56//1
f 12//2 21//2 31//2
f 40//3 23//3 52//3
f 16//4 18//4 27//4
f 37//5 14//5 48//5
f 35//6 16//6 44//6
f 42//6 6//6 40//6
f 44//6 15//6 42//6
f 46//5 1//5 34//5
f 48//5 13//5 46//5
f 6//4 25//4 23//4
f 15//4 27//4 25//4
f 4//2 29//2 19//2
f 11//2 31//2 29//2
f 30//2 9//2 10//2
f 62//3 28//3 60//3
f 20//2 10//2 3//2
f 19//2 30//2 20//2
f 26//4 13//4 14//4
f 60//6 26//6 57//6
f 24//4 14//4 5//4
f 23//4 26//4 24//4
f 28//4 1//4 13//4
f 27//4 17//4 28//4
f 50//3 5//3 37//3
f 52//3 24//3 50//3
f 32//2 7//2 9//2
f 31//2 22//2 32//2
f 54//1 3//1 33//1
f 56//1 20//1 54//1
f 64//5 27//5 62//5
f 57//1 25//1 64//1
f 18//1 53//1 17//1
f 62//5 56//5 61//5
f 17//1 34//1 1//1
f 53//1 33//1 34//1
f 21//3 49//3 22//3
f 63//5 52//5 64//5
f 22//3 38//3 7//3
f 49//3 37//3 38//3
f 9//5 45//5 10//5
f 58//1 48//1 57//1
f 10//5 33//5 3//5
f 45//5 34//5 33//5
f 11//6 41//6 12//6
f 61//3 44//3 62//3
f 12//6 39//6 8//6
f 41//6 40//6 39//6
f 4//6 43//6 11//6
f 36//6 44//6 43//6
f 7//5 47//5 9//5
f 38//5 48//5 47//5
f 8//3 51//3 21//3
f 39//3 52//3 51//3
f 2//1 55//1 18//1
f 35//1 56//1 55//1
f 32//1 63//1 31//1
f 64//2 50//2 57//2
f 31//5 61//5 29//5
f 62//2 42//2 64//2
f 30//6 58//6 32//6
f 57//2 46//2 60//2
f 29//3 59//3 30//3
f 61//4 54//4 59//4
f 60//2 55//2 62//2
f 59//6 53//6 60//6
f 58//4 51//4 63//4
f 57//6 49//6 58//6
f 63//4 43//4 61//4
f 64//1 41//1 63//1
f 59//4 47//4 58//4
f 60//3 45//3 59//3
f 36//1 4//1 19//1
f 12//2 8//2 21//2
f 40//3 6//3 23//3
f 16//4 2//4 18//4
f 37//5 5//5 14//5
f 35//6 2//6 16//6
f 42//6 15//6 6//6
f 44//6 16//6 15//6
f 46//5 13//5 1//5
f 48//5 14//5 13//5
f 6//4 15//4 25//4
f 15//4 16//4 27//4
f 4//2 11//2 29//2
f 11//2 12//2 31//2
f 30//2 32//2 9//2
f 62//3 27//3 28//3
f 20//2 30//2 10//2
f 19//2 29//2 30//2
f 26//4 28//4 13//4
f 60//6 28//6 26//6
f 24//4 26//4 14//4
f 23//4 25//4 26//4
f 28//4 17//4 1//4
f 27//4 18//4 17//4
f 50//3 24//3 5//3
f 52//3 23//3 24//3
f 32//2 22//2 7//2
f 31//2 21//2 22//2
f 54//1 20//1 3//1
f 56//1 19//1 20//1
f 64//5 25//5 27//5
f 57//1 26//1 25//1
f 18//1 55//1 53//1
f 62//5 55//5 56//5
f 17//1 53//1 34//1
f 53//1 54//1 33//1
f 21//3 51//3 49//3
f 63//5 51//5 52//5
f 22//3 49//3 38//3
f 49//3 50//3 37//3
f 9//5 47//5 45//5
f 58//1 47//1 48//1
f 10//5 45//5 33//5
f 45//5 46//5 34//5
f 11//6 43//6 41//6
f 61//3 43//3 44//3
f 12//6 41//6 39//6
f 41//6 42//6 40//6
f 4//6 36//6 43//6
f 36//6 35//6 44//6
f 7//5 38//5 47//5
f 38//5 37//5 48//5
f 8//3 39//3 51//3
f 39//3 40//3 52//3
f 2//1 35//1 55//1
f 35//1 36//1 56//1
f 32//1 58//1 63//1
f 64//2 52//2 50//2
f 31//5 63//5 61//5
f 62//2 44//2 42//2
f 30//6 59//6 58//6
f 57//2 48//2 46//2
f 29//3 61//3 59//3
f 61//4 56//4 54//4
f 60//2 53//2 55//2
f 59//6 54//6 53//6
f 58//4 49//4 51//4
f 57//6 50//6 49//6
f 63//4 41//4 43//4
f 64//1 42//1 41//1
f 59//4 45//4 47//4
f 60//3 46//3 45//3
