# Blender 3.6.4
# www.blender.org
mtllib bloc_v2.mtl
o Circle
v 0.738249 0.774385 -2.186058
v 2.262306 0.774385 -0.453687
v 1.524058 0.774385 1.732371
v -0.738249 0.774385 2.186058
v -2.262306 0.774385 0.453687
v -1.524058 0.774385 -1.732371
v 1.500278 0.774385 -1.319873
v 1.893182 0.774385 0.639342
v 0.392904 0.774385 1.959215
v -1.500278 0.774385 1.319873
v -1.893182 0.774385 -0.639342
v -0.392904 0.774385 -1.959215
v -0.369124 0.774385 1.093029
v 0.762029 0.774385 0.866186
v 0.369124 0.774385 -1.093029
v 1.131153 0.774385 -0.226844
v -1.131153 0.774385 0.226844
v -0.762029 0.774385 -0.866186
v 0.000000 0.774385 -0.000000
v 1.004523 0.005351 -1.727376
v 0.007222 0.005351 -2.307338
v 1.998213 0.005351 0.006254
v 2.001824 0.005351 -1.147415
v 0.993691 0.005351 1.733631
v 1.994603 0.005351 1.159923
v -1.004523 0.005351 1.727376
v -0.007222 0.005351 2.307338
v -1.998213 0.005351 -0.006254
v -2.001824 0.005351 1.147415
v -0.993691 0.005351 -1.733631
v -1.994603 0.005351 -1.159923
v -1.000912 0.005351 0.573708
v -0.003611 0.005351 1.153669
v 0.997301 0.005351 0.579962
v 0.000000 0.005351 -0.000000
v 1.000912 0.005351 -0.573707
v 0.003611 0.005351 -1.153669
v -0.997301 0.005351 -0.579962
vn -0.0000 1.0000 -0.0000
vn -0.0000 -1.0000 -0.0000
vn 0.7401 0.1683 -0.6511
vn 0.7442 -0.1328 -0.6547
vn 0.1861 0.3232 0.9279
vn 0.9390 -0.1328 0.3171
vn 0.4177 0.5428 0.7287
vn -0.7105 0.3232 0.6251
vn 0.1949 -0.1328 0.9718
vn 0.1938 0.1683 0.9665
vn 0.4757 -0.2915 0.8299
vn -0.8966 0.3232 -0.3028
vn -0.9339 0.1683 -0.3154
vn -0.7442 -0.1328 0.6547
vn -0.1861 0.3232 -0.9279
vn -0.9390 -0.1328 -0.3171
vn 0.4809 -0.2915 -0.8269
vn -0.1949 -0.1328 -0.9718
vn 0.4222 0.5428 -0.7260
vn 0.7105 0.3232 -0.6251
vn -0.8399 0.5428 -0.0026
vn -0.9566 -0.2915 -0.0030
vn 0.8966 0.3232 0.3028
vn 0.4955 -0.1683 -0.8521
vn 0.4757 -0.3232 -0.8181
vn 0.4929 0.1328 0.8599
vn 0.9463 -0.3232 0.0030
vn 0.1881 0.2915 0.9379
vn -0.4983 0.1328 0.8568
vn 0.4706 -0.3232 0.8210
vn 0.4902 -0.1683 0.8552
vn 0.1651 -0.5428 0.8235
vn -0.9911 0.1328 -0.0031
vn -0.9857 -0.1683 -0.0031
vn -0.4757 -0.3232 0.8181
vn -0.4929 0.1328 -0.8599
vn -0.9463 -0.3232 -0.0030
vn 0.6306 -0.5428 -0.5547
vn -0.4706 -0.3232 -0.8210
vn 0.7182 0.2915 -0.6318
vn 0.4983 0.1328 -0.8568
vn -0.9063 0.2915 -0.3061
vn -0.7957 -0.5428 -0.2687
vn 0.9911 0.1328 0.0031
vt 0.146077 0.310000
vt 0.146077 0.430000
vt 0.042154 0.370000
vt 0.250000 0.370000
vt 0.250000 0.490000
vt 0.250000 0.130000
vt 0.250000 0.010000
vt 0.353923 0.070000
vt 0.353923 0.190000
vt 0.457846 0.130000
vt 0.250000 0.250000
vt 0.146077 0.070000
vt 0.457846 0.250000
vt 0.353923 0.310000
vt 0.353923 0.430000
vt 0.457846 0.370000
vt 0.146077 0.190000
vt 0.042154 0.250000
vt 0.042154 0.130000
s 0
f 18/1/1 12/2/1 6/3/1
f 15/4/1 1/5/1 12/2/1
f 13/6/1 4/7/1 9/8/1
f 14/9/1 9/8/1 3/10/1
f 14/9/1 19/11/1 13/6/1
f 4/7/1 13/6/1 10/12/1
f 8/13/1 16/14/1 14/9/1
f 7/15/1 1/5/1 15/4/1
f 15/4/1 12/2/1 18/1/1
f 2/16/1 7/15/1 16/14/1
f 10/12/1 13/6/1 17/17/1
f 17/17/1 11/18/1 5/19/1
f 19/11/1 15/4/1 18/1/1
f 19/11/1 18/1/1 17/17/1
f 16/14/1 15/4/1 19/11/1
f 13/6/1 19/11/1 17/17/1
f 14/9/1 16/14/1 19/11/1
f 10/12/1 17/17/1 5/19/1
f 8/13/1 2/16/1 16/14/1
f 8/13/1 14/9/1 3/10/1
f 11/18/1 18/1/1 6/3/1
f 37/4/2 30/2/2 21/5/2
f 38/1/2 31/3/2 30/2/2
f 33/6/2 24/8/2 27/7/2
f 34/9/2 25/10/2 24/8/2
f 34/9/2 33/6/2 35/11/2
f 27/7/2 26/12/2 33/6/2
f 22/13/2 34/9/2 36/14/2
f 20/15/2 37/4/2 21/5/2
f 37/4/2 38/1/2 30/2/2
f 23/16/2 36/14/2 20/15/2
f 26/12/2 32/17/2 33/6/2
f 32/17/2 29/19/2 28/18/2
f 35/11/2 38/1/2 37/4/2
f 35/11/2 32/17/2 38/1/2
f 36/14/2 35/11/2 37/4/2
f 33/6/2 32/17/2 35/11/2
f 34/9/2 35/11/2 36/14/2
f 26/12/2 29/19/2 32/17/2
f 22/13/2 36/14/2 23/16/2
f 22/13/2 25/10/2 34/9/2
f 28/18/2 31/3/2 38/1/2
f 15/4/3 16/14/3 36/14/3
f 1/5/4 7/15/4 20/15/4
f 9/8/5 4/7/5 27/7/5
f 2/16/6 8/13/6 22/13/6
f 11/18/7 28/18/7 38/1/7
f 10/12/8 5/19/8 29/19/8
f 3/10/9 9/8/9 24/8/9
f 14/9/10 13/6/10 33/6/10
f 15/4/11 37/4/11 20/15/11
f 11/18/12 6/3/12 31/3/12
f 17/17/13 18/1/13 38/1/13
f 4/7/14 10/12/14 26/12/14
f 12/2/15 1/5/15 21/5/15
f 5/19/16 11/18/16 28/18/16
f 17/17/17 32/17/17 28/18/17
f 6/3/18 12/2/18 30/2/18
f 9/8/19 24/8/19 33/6/19
f 7/15/20 2/16/20 23/16/20
f 7/15/21 20/15/21 36/14/21
f 14/9/22 34/9/22 24/8/22
f 8/13/23 3/10/23 25/10/23
f 15/4/24 36/14/24 37/4/24
f 1/5/25 20/15/25 21/5/25
f 9/8/26 27/7/26 24/8/26
f 2/16/27 22/13/27 23/16/27
f 11/18/28 38/1/28 18/1/28
f 10/12/29 29/19/29 26/12/29
f 3/10/30 24/8/30 25/10/30
f 14/9/31 33/6/31 34/9/31
f 15/4/32 20/15/32 7/15/32
f 11/18/33 31/3/33 28/18/33
f 17/17/34 38/1/34 32/17/34
f 4/7/35 26/12/35 27/7/35
f 12/2/36 21/5/36 30/2/36
f 5/19/37 28/18/37 29/19/37
f 17/17/38 28/18/38 11/18/38
f 6/3/39 30/2/39 31/3/39
f 9/8/40 33/6/40 13/6/40
f 7/15/41 23/16/41 20/15/41
f 7/15/42 36/14/42 16/14/42
f 14/9/43 24/8/43 9/8/43
f 8/13/44 25/10/44 22/13/44
