# Blender v3.1.2 OBJ File: 'bloc_v1.blend'
# www.blender.org
mtllib bloc_v3.mtl
o Circle.002
v 0.000000 0.000000 -2.319335
v -2.000519 0.000000 -1.164334
v 0.000000 0.000000 2.300665
v 2.000519 0.000000 -1.164334
v -2.000519 0.000000 1.145666
v 2.000519 0.000000 1.145665
v -1.000259 0.000000 -1.741834
v 1.000259 0.000000 -1.741834
v 2.000519 0.000000 -0.009335
v -2.000519 0.000000 -0.009334
v -1.000259 0.000000 1.723166
v 1.000260 0.000000 1.723165
v 0.000000 0.000000 1.145666
v 1.000259 0.000000 0.568166
v -1.000259 0.000000 -0.586834
v -1.000259 0.000000 0.568165
v 1.000259 0.000000 -0.586835
v 0.000000 0.000000 -1.164335
v -0.000001 0.000000 -0.009335
v -2.554754 0.000000 -0.009334
v 1.275383 0.000000 2.193667
v 1.281267 0.000000 -2.229534
v 0.438316 0.604724 -2.223166
v -1.746727 0.604724 -1.473706
v -0.448625 0.604724 2.310898
v 2.179888 0.604724 -0.705593
v -2.190197 0.604724 0.793326
v 1.736418 0.604724 1.561438
v -0.654206 0.604724 -1.848436
v 1.309102 0.604724 -1.464380
v 1.958153 0.604724 0.427923
v -1.968462 0.604724 -0.340190
v -1.319411 0.604724 1.552112
v 0.643897 0.604724 1.936168
v -0.226890 0.604724 1.177382
v 0.865631 0.604724 0.802652
v -0.875941 0.604724 -0.714920
v -1.097676 0.604724 0.418596
v 1.087367 0.604724 -0.330864
v 0.216580 0.604724 -1.089650
v -0.005155 0.604724 0.043866
v -2.512388 0.604724 -0.446592
v 0.823577 0.604724 2.450736
v 1.678510 0.604724 -1.889060
vt 0.000000 0.000000
vt 0.000000 0.000000
vt 0.000000 0.000000
vt 0.000000 0.000000
vt 0.000000 0.000000
vt 0.000000 0.000000
vt 0.000000 0.000000
vt 0.000000 0.000000
vt 0.000000 0.000000
vt 0.000000 0.000000
vt 0.000000 0.000000
vt 0.000000 0.000000
vt 0.000000 0.000000
vt 0.000000 0.000000
vt 0.000000 0.000000
vt 0.000000 0.000000
vt 0.000000 0.000000
vt 0.000000 0.000000
vt 0.000000 0.000000
vt 0.000000 0.000000
vt 0.000000 0.000000
vt 0.000000 0.000000
vt 0.000000 0.000000
vt 0.000000 0.000000
vt 0.000000 0.000000
vt 0.000000 0.000000
vt 0.000000 0.000000
vt 0.000000 0.000000
vt 0.000000 0.000000
vt 0.000000 0.000000
vt 0.000000 0.000000
vt 0.000000 0.000000
vt 0.000000 0.000000
vt 0.000000 0.000000
vt 0.000000 0.000000
vt 0.000000 0.000000
vt 0.000000 0.000000
vt 0.000000 0.000000
vt 0.000000 0.000000
vt 0.000000 0.000000
vt 0.000000 0.000000
vt 0.000000 0.000000
vt 0.000000 0.000000
vt 0.000000 0.000000
vn 0.0000 1.0000 0.0000
vn 0.3244 -0.0189 0.9457
vn 0.4956 -0.1323 0.8584
vn -0.2437 -0.3493 0.9048
vn 0.4869 0.2271 0.8434
vn 0.3027 -0.3598 0.8826
vn -0.0695 -0.1073 0.9918
vn -0.4129 0.0763 -0.9076
vn 0.8740 0.4548 0.1710
vn -0.6316 -0.2750 0.7249
vn 0.9761 0.2173 -0.0000
vn -0.5795 -0.0763 0.8114
vn -0.4288 -0.5143 0.7427
vn -0.2782 0.5143 -0.8112
vn 0.9579 -0.2173 0.1874
vn 0.9953 0.0000 0.0964
vn -0.4807 0.2750 -0.8326
vn 0.8906 -0.4548 0.0000
vn -0.4956 0.1325 0.8584
vn -0.3216 -0.1325 -0.9376
vn -0.4564 -0.4083 -0.7905
vn -0.5997 0.4083 0.6882
vn 0.8747 0.2422 0.4197
vn -0.8014 0.0307 -0.5974
vn -0.8078 0.2235 0.5454
vn -0.9205 -0.0228 0.3900
vn -0.9587 0.2844 0.0000
vn 0.9790 -0.0699 0.1915
vn -0.9976 -0.0699 0.0000
vn 0.9409 0.2844 0.1841
vn -0.8219 0.0321 -0.5687
vn 0.6820 0.2119 0.7000
vn -0.9390 0.2422 0.2440
vn 0.9011 0.0307 -0.4324
vn -0.6398 0.2271 0.7342
vn 0.4999 0.0189 -0.8659
vn -0.6512 -0.1323 0.7473
vn 0.4665 0.3598 -0.8080
vn -0.1087 -0.0974 0.9893
vn -0.0786 0.3397 -0.9372
usemtl None
s off
f 10/1/1 20/2/1 5/3/1
f 29/4/2 24/5/2 7/6/2
f 1/7/3 29/4/3 7/6/3
f 44/8/4 23/9/4 22/10/4
f 7/6/1 2/11/1 15/12/1
f 11/13/1 3/14/1 13/15/1
f 9/16/1 4/17/1 17/18/1
f 9/16/1 17/18/1 14/19/1
f 18/20/1 8/21/1 1/7/1
f 16/22/1 10/1/1 5/3/1
f 14/19/1 17/18/1 19/23/1
f 13/15/1 16/22/1 11/13/1
f 15/12/1 18/20/1 7/6/1
f 14/19/1 6/24/1 9/16/1
f 15/12/1 2/11/1 10/1/1
f 1/7/1 7/6/1 18/20/1
f 17/18/1 4/17/1 8/21/1
f 6/24/1 14/19/1 12/25/1
f 13/15/1 3/14/1 12/25/1
f 5/3/1 11/13/1 16/22/1
f 19/23/1 17/18/1 18/20/1
f 18/20/1 15/12/1 19/23/1
f 15/12/1 16/22/1 19/23/1
f 16/22/1 13/15/1 19/23/1
f 13/15/1 14/19/1 19/23/1
f 20/2/1 10/1/1 2/11/1
f 21/26/1 12/25/1 3/14/1
f 12/25/1 21/26/1 6/24/1
f 4/17/1 22/10/1 8/21/1
f 8/21/1 22/10/1 1/7/1
f 32/27/1 42/28/1 27/29/1
f 7/6/5 24/5/5 2/11/5
f 23/9/6 29/4/6 1/7/6
f 23/9/7 1/7/7 22/10/7
f 29/4/1 24/5/1 37/30/1
f 33/31/1 25/32/1 35/33/1
f 31/34/1 26/35/1 39/36/1
f 31/34/1 39/36/1 36/37/1
f 40/38/1 30/39/1 23/9/1
f 38/40/1 32/27/1 27/29/1
f 36/37/1 39/36/1 41/41/1
f 35/33/1 38/40/1 33/31/1
f 37/30/1 40/38/1 29/4/1
f 36/37/1 28/42/1 31/34/1
f 37/30/1 24/5/1 32/27/1
f 23/9/1 29/4/1 40/38/1
f 39/36/1 26/35/1 30/39/1
f 28/42/1 36/37/1 34/43/1
f 35/33/1 25/32/1 34/43/1
f 27/29/1 33/31/1 38/40/1
f 41/41/1 39/36/1 40/38/1
f 40/38/1 37/30/1 41/41/1
f 37/30/1 38/40/1 41/41/1
f 38/40/1 35/33/1 41/41/1
f 35/33/1 36/37/1 41/41/1
f 42/28/1 32/27/1 24/5/1
f 43/44/1 34/43/1 25/32/1
f 34/43/1 43/44/1 28/42/1
f 26/35/1 44/8/1 30/39/1
f 30/39/1 44/8/1 23/9/1
f 14/19/8 13/15/8 35/33/8 36/37/8
f 12/25/9 36/37/9 34/43/9
f 13/15/10 34/43/10 35/33/10
f 36/37/11 12/25/11 14/19/11
f 18/20/12 17/18/12 39/36/12 40/38/12
f 34/43/13 13/15/13 12/25/13
f 8/21/14 40/38/14 30/39/14
f 17/18/15 30/39/15 39/36/15
f 16/22/16 15/12/16 37/30/16 38/40/16
f 40/38/17 8/21/17 18/20/17
f 30/39/18 17/18/18 8/21/18
f 10/1/19 16/22/19 38/40/19
f 15/12/20 32/27/20 37/30/20
f 32/27/21 15/12/21 10/1/21
f 38/40/22 32/27/22 10/1/22
f 20/2/23 2/11/23 42/28/23
f 42/28/24 24/5/24 2/11/24
f 44/8/25 22/10/25 4/17/25
f 44/8/26 4/17/26 26/35/26
f 9/16/27 26/35/27 4/17/27
f 26/35/28 31/34/28 9/16/28
f 9/16/29 6/24/29 31/34/29
f 28/42/30 6/24/30 31/34/30
f 21/26/31 28/42/31 6/24/31
f 28/42/32 43/44/32 21/26/32
f 27/29/33 42/28/33 20/2/33
f 20/2/34 27/29/34 5/3/34
f 33/31/35 27/29/35 5/3/35
f 5/3/36 33/31/36 11/13/36
f 25/32/37 33/31/37 11/13/37
f 11/13/38 25/32/38 3/14/38
f 43/44/39 25/32/39 3/14/39
f 21/26/40 3/14/40 43/44/40
