# This file uses centimeters as units for non-parametric coordinates.

mtllib cube_torus.mtl
g default
v 0.000002 0.000000 -15.000000
v -15.000000 0.000000 -0.000001
v -0.000001 0.000000 15.000000
v 15.000000 0.000000 0.000000
v 0.000003 5.000000 -20.000000
v -20.000000 5.000000 -0.000002
v -0.000001 5.000000 20.000000
v 20.000000 5.000000 0.000000
v 0.000003 -0.000000 -25.000000
v -25.000000 -0.000000 -0.000002
v -0.000001 -0.000000 25.000000
v 25.000000 -0.000000 0.000000
v 0.000003 -5.000000 -20.000000
v -20.000000 -5.000000 -0.000002
v -0.000001 -5.000000 20.000000
v 20.000000 -5.000000 0.000000
vt 0.000000 1.000000
vt 0.250000 1.000000
vt 0.500000 1.000000
vt 0.750000 1.000000
vt 1.000000 1.000000
vt 0.000000 0.750000
vt 0.250000 0.750000
vt 0.500000 0.750000
vt 0.750000 0.750000
vt 1.000000 0.750000
vt 0.000000 0.500000
vt 0.250000 0.500000
vt 0.500000 0.500000
vt 0.750000 0.500000
vt 1.000000 0.500000
vt 0.000000 0.250000
vt 0.250000 0.250000
vt 0.500000 0.250000
vt 0.750000 0.250000
vt 1.000000 0.250000
vt 0.000000 0.000000
vt 0.250000 0.000000
vt 0.500000 0.000000
vt 0.750000 0.000000
vt 1.000000 0.000000
vn 0.577350 0.577350 0.577350
vn 0.577350 0.577350 0.577350
vn 0.577350 0.577350 0.577350
vn 0.577350 0.577350 0.577350
vn 0.577350 0.577350 -0.577350
vn 0.577350 0.577350 -0.577350
vn 0.577350 0.577350 -0.577350
vn 0.577350 0.577350 -0.577350
vn -0.577350 0.577350 -0.577350
vn -0.577350 0.577350 -0.577350
vn -0.577350 0.577350 -0.577350
vn -0.577350 0.577350 -0.577350
vn -0.577350 0.577350 0.577350
vn -0.577350 0.577350 0.577350
vn -0.577350 0.577350 0.577350
vn -0.577350 0.577350 0.577350
vn -0.577350 0.577350 -0.577350
vn -0.577350 0.577350 -0.577350
vn -0.577350 0.577350 -0.577350
vn -0.577350 0.577350 -0.577350
vn -0.577350 0.577350 0.577350
vn -0.577350 0.577350 0.577350
vn -0.577350 0.577350 0.577350
vn -0.577350 0.577350 0.577350
vn 0.577350 0.577350 0.577350
vn 0.577350 0.577350 0.577350
vn 0.577350 0.577350 0.577350
vn 0.577350 0.577350 0.577350
vn 0.577350 0.577350 -0.577350
vn 0.577350 0.577350 -0.577350
vn 0.577350 0.577350 -0.577350
vn 0.577350 0.577350 -0.577350
vn -0.577350 -0.577350 -0.577350
vn -0.577350 -0.577350 -0.577350
vn -0.577350 -0.577350 -0.577350
vn -0.577350 -0.577350 -0.577350
vn -0.577350 -0.577350 0.577350
vn -0.577350 -0.577350 0.577350
vn -0.577350 -0.577350 0.577350
vn -0.577350 -0.577350 0.577350
vn 0.577350 -0.577350 0.577350
vn 0.577350 -0.577350 0.577350
vn 0.577350 -0.577350 0.577350
vn 0.577350 -0.577350 0.577350
vn 0.577350 -0.577351 -0.577350
vn 0.577350 -0.577350 -0.577350
vn 0.577350 -0.577350 -0.577350
vn 0.577350 -0.577350 -0.577350
vn 0.577350 -0.577350 0.577350
vn 0.577350 -0.577350 0.577350
vn 0.577350 -0.577350 0.577350
vn 0.577350 -0.577350 0.577350
vn 0.577350 -0.577350 -0.577350
vn 0.577350 -0.577350 -0.577350
vn 0.577350 -0.577350 -0.577350
vn 0.577350 -0.577350 -0.577350
vn -0.577350 -0.577350 -0.577350
vn -0.577350 -0.577350 -0.577350
vn -0.577350 -0.577350 -0.577350
vn -0.577350 -0.577350 -0.577350
vn -0.577350 -0.577350 0.577350
vn -0.577350 -0.577350 0.577350
vn -0.577350 -0.577350 0.577350
vn -0.577350 -0.577350 0.577350
s 1
g pTorus1
usemtl initialShadingGroup
f 2/2/1 1/1/2 6/7/3
f 6/7/3 1/1/2 5/6/4
s 2
f 3/3/5 2/2/6 7/8/7
f 7/8/7 2/2/6 6/7/8
s 3
f 4/4/9 3/3/10 8/9/11
f 8/9/11 3/3/10 7/8/12
s 4
f 1/5/13 4/4/14 5/10/15
f 5/10/15 4/4/14 8/9/16
s 5
f 6/7/17 5/6/18 10/12/19
f 10/12/19 5/6/18 9/11/20
s 6
f 7/8/21 6/7/22 11/13/23
f 11/13/23 6/7/22 10/12/24
s 7
f 8/9/25 7/8/26 12/14/27
f 12/14/27 7/8/26 11/13/28
s 8
f 5/10/29 8/9/30 9/15/31
f 9/15/31 8/9/30 12/14/32
s 9
f 10/12/33 9/11/34 14/17/35
f 14/17/35 9/11/34 13/16/36
s 10
f 11/13/37 10/12/38 15/18/39
f 15/18/39 10/12/38 14/17/40
s 11
f 12/14/41 11/13/42 16/19/43
f 16/19/43 11/13/42 15/18/44
s 12
f 9/15/45 12/14/46 13/20/47
f 13/20/47 12/14/46 16/19/48
s 13
f 14/17/49 13/16/50 2/22/51
f 2/22/51 13/16/50 1/21/52
s 14
f 15/18/53 14/17/54 3/23/55
f 3/23/55 14/17/54 2/22/56
s 15
f 16/19/57 15/18/58 4/24/59
f 4/24/59 15/18/58 3/23/60
s 16
f 13/20/61 16/19/62 1/25/63
f 1/25/63 16/19/62 4/24/64
