# Blender 3.6.4
# www.blender.org
mtllib untitled.mtl
o Cube
v -3.070908 -1.000000 2.424316
v -1.000000 1.000000 1.000000
v -3.069923 -0.997013 -2.113836
v -1.027222 0.917360 -0.833061
v 1.461209 -1.000000 2.424316
v 1.000000 1.000000 1.000000
v 1.439885 -1.064735 -1.411955
v 1.003418 1.010376 -0.455882
v -3.070908 -1.000000 0.158257
v -1.000000 1.000000 0.000000
v 1.461209 -1.000000 0.158257
v 1.000000 1.000000 0.000000
v 2.542850 1.000000 -1.000000
v 4.957397 -1.000000 -2.107801
v 4.957397 -1.000000 0.158257
v 2.542850 1.000000 0.000000
v 2.315388 0.579321 0.833196
v 2.315388 -0.459984 0.833196
v 3.070872 0.579321 0.833196
v 3.070872 -0.459984 0.833196
v -1.243264 -0.296245 1.653524
v -0.616913 0.308661 1.222736
v -0.012007 0.308661 1.222736
v 0.127487 -0.296245 1.653524
v -0.401464 0.092460 1.376704
v -0.470884 -0.080045 1.499555
v -0.295321 0.006208 1.438130
v -0.577027 0.006208 1.438130
v -0.711555 0.428316 -1.023678
v -1.703662 -0.501464 -1.645730
v 0.486680 -0.534355 -1.304838
v 0.274694 0.473492 -0.840489
v -0.795717 0.010233 -1.244367
v -0.352148 -0.209982 -1.281048
v -0.206692 0.683561 -0.814996
v 0.774785 0.040026 -0.973520
vn -0.6875 0.7261 -0.0128
vn 0.1446 0.4390 -0.8868
vn 0.9744 0.2247 -0.0000
vn 0.2019 0.4208 0.8844
vn -0.0041 0.9999 -0.0145
vn -0.0001 -1.0000 0.0099
vn -0.2298 0.3070 -0.9236
vn -0.6947 0.7193 -0.0000
vn 0.6379 0.7701 -0.0000
vn -0.0000 0.8927 0.4507
vn -0.0000 -0.0000 1.0000
vn -0.5686 -0.0435 0.8214
vn -0.0000 -0.7808 0.6247
vn 0.6457 0.5410 0.5388
vn -0.0000 0.3292 0.9443
vn -0.1765 0.5437 0.8205
vn -0.0000 0.7305 0.6829
vn -0.0000 0.5801 0.8146
vt 0.375000 0.125000
vt 0.625000 0.125000
vt 0.625000 0.250000
vt 0.375000 0.250000
vt 0.375000 0.500000
vt 0.125000 0.500000
vt 0.250000 0.500000
vt 0.375000 0.625000
vt 0.625000 0.625000
vt 0.625000 0.750000
vt 0.375000 0.750000
vt 0.625000 0.000000
vt 0.375000 0.000000
vt 0.500000 0.000000
vt 0.625000 0.500000
vt 0.875000 0.500000
vt 0.875000 0.625000
vt 0.875000 0.750000
vt 0.125000 0.750000
vt 0.125000 0.625000
vt 0.750000 0.750000
vt 0.500000 0.750000
vt 0.250000 0.750000
vt 0.750000 0.500000
vt 0.500000 0.250000
vt 0.500000 0.500000
vt 0.625000 0.375000
vt 0.375000 0.375000
s 0
f 9/1/1 10/2/1 4/3/1 3/4/1
f 7/5/2 3/6/2 30/6/2 34/7/2 31/5/2
f 11/8/3 12/9/3 6/10/3 5/11/3
f 2/12/4 1/13/4 21/13/4 28/14/4 22/12/4
f 12/9/5 16/9/5 13/15/5 8/15/5 4/16/5 10/17/5 2/18/5 6/10/5
f 7/5/6 14/5/6 15/8/6 11/8/6 5/11/6 1/19/6 9/20/6 3/6/6
f 7/5/7 8/15/7 13/15/7 14/5/7
f 1/13/8 2/12/8 10/2/8 9/1/8
f 14/5/9 13/15/9 16/9/9 15/8/9
f 16/9/10 12/9/10 17/9/10 19/9/10
f 17/9/11 18/8/11 20/8/11 19/9/11
f 12/9/12 11/8/12 18/8/12 17/9/12
f 11/8/13 15/8/13 20/8/13 18/8/13
f 15/8/14 16/9/14 19/9/14 20/8/14
f 6/10/15 2/18/15 22/18/15 25/21/15 23/10/15
f 5/11/16 6/10/16 23/10/16 27/22/16 24/11/16
f 1/19/17 5/11/17 24/11/17 26/23/17 21/19/17
f 28/14/18 21/13/18 26/23/18 24/11/18 27/22/18 23/10/18 25/21/18 22/18/18
f 4/16/2 8/15/2 32/15/2 35/24/2 29/16/2
f 3/4/2 4/3/2 29/3/2 33/25/2 30/4/2
f 8/15/2 7/5/2 31/5/2 36/26/2 32/15/2
f 33/25/2 29/3/2 35/27/2 32/15/2 36/26/2 31/5/2 34/28/2 30/4/2
