# Blender 3.5.1
# www.blender.org
mtllib torus33.mtl
o Torus
v 1.250000 0.000000 0.000000
v 0.875000 0.216506 0.000000
v 0.875000 -0.216506 0.000000
v -0.625000 0.000000 -1.082532
v -0.437500 0.216506 -0.757772
v -0.437500 -0.216506 -0.757772
v -0.625000 0.000000 1.082532
v -0.437500 0.216506 0.757772
v -0.437500 -0.216506 0.757772
vn 0.3780 0.6547 -0.6547
vn -0.5000 -0.0000 0.8660
vn 0.3780 -0.6547 -0.6547
vn -0.7559 0.6547 -0.0000
vn 1.0000 -0.0000 -0.0000
vn -0.7559 -0.6547 -0.0000
vn 0.3780 0.6547 0.6547
vn -0.5000 -0.0000 -0.8660
vn 0.3780 -0.6547 0.6547
vt 0.666667 0.666667
vt 0.666667 1.000000
vt 0.666667 0.000000
vt 0.666667 0.333333
vt 1.000000 0.666667
vt 0.000000 0.666667
vt 1.000000 1.000000
vt 1.000000 0.000000
vt 0.000000 1.000000
vt 0.000000 0.000000
vt 1.000000 0.333333
vt 0.000000 0.333333
vt 0.333333 0.666667
vt 0.333333 1.000000
vt 0.333333 0.000000
vt 0.333333 0.333333
s 0
f 1/1/1 4/5/1 5/7/1 2/2/1
f 2/3/2 5/8/2 6/11/2 3/4/2
f 3/4/3 6/11/3 4/5/3 1/1/3
f 4/6/4 7/13/4 8/14/4 5/9/4
f 5/10/5 8/15/5 9/16/5 6/12/5
f 6/12/6 9/16/6 7/13/6 4/6/6
f 7/13/7 1/1/7 2/2/7 8/14/7
f 8/15/8 2/3/8 3/4/8 9/16/8
f 9/16/9 3/4/9 1/1/9 7/13/9
