# Blender 3.5.1
# www.blender.org
mtllib torus77.mtl
o Torus
v 1.250000 0.000000 0.000000
v 1.155872 0.195458 0.000000
v 0.944370 0.243732 0.000000
v 0.774758 0.108471 0.000000
v 0.774758 -0.108471 0.000000
v 0.944370 -0.243732 0.000000
v 1.155872 -0.195458 0.000000
v 0.779362 0.000000 -0.977289
v 0.720675 0.195458 -0.903698
v 0.588805 0.243732 -0.738338
v 0.483054 0.108471 -0.605730
v 0.483054 -0.108471 -0.605730
v 0.588805 -0.243732 -0.738338
v 0.720675 -0.195458 -0.903698
v -0.278151 0.000000 -1.218660
v -0.257206 0.195458 -1.126892
v -0.210142 0.243732 -0.920692
v -0.172400 0.108471 -0.755333
v -0.172400 -0.108471 -0.755333
v -0.210142 -0.243732 -0.920692
v -0.257206 -0.195458 -1.126892
v -1.126211 0.000000 -0.542355
v -1.041405 0.195458 -0.501514
v -0.850848 0.243732 -0.409747
v -0.698033 0.108471 -0.336155
v -0.698033 -0.108471 -0.336155
v -0.850848 -0.243732 -0.409747
v -1.041405 -0.195458 -0.501514
v -1.126211 0.000000 0.542354
v -1.041405 0.195458 0.501514
v -0.850848 0.243732 0.409746
v -0.698033 0.108471 0.336155
v -0.698033 -0.108471 0.336155
v -0.850848 -0.243732 0.409746
v -1.041405 -0.195458 0.501514
v -0.278151 0.000000 1.218660
v -0.257206 0.195458 1.126892
v -0.210142 0.243732 0.920692
v -0.172400 0.108471 0.755333
v -0.172400 -0.108471 0.755333
v -0.210142 -0.243732 0.920692
v -0.257206 -0.195458 1.126892
v 0.779362 0.000000 0.977290
v 0.720674 0.195458 0.903698
v 0.588804 0.243732 0.738338
v 0.483053 0.108471 0.605730
v 0.483053 -0.108471 0.605730
v 0.588804 -0.243732 0.738338
v 0.720674 -0.195458 0.903698
vn 0.8265 0.3980 -0.3980
vn 0.2213 0.9694 -0.1066
vn -0.5972 0.7488 0.2876
vn -0.9010 -0.0000 0.4339
vn -0.5972 -0.7488 0.2876
vn 0.2213 -0.9694 -0.1066
vn 0.8265 -0.3980 -0.3980
vn 0.2041 0.3980 -0.8944
vn 0.0546 0.9694 -0.2394
vn -0.1475 0.7488 0.6462
vn -0.2225 -0.0000 0.9749
vn -0.1475 -0.7488 0.6462
vn 0.0546 -0.9694 -0.2394
vn 0.2041 -0.3980 -0.8944
vn -0.5720 0.3980 -0.7172
vn -0.1531 0.9694 -0.1920
vn 0.4132 0.7488 0.5182
vn 0.6235 -0.0000 0.7818
vn 0.4132 -0.7488 0.5182
vn -0.1531 -0.9694 -0.1920
vn -0.5720 -0.3980 -0.7172
vn -0.9174 0.3980 -0.0000
vn -0.2456 0.9694 -0.0000
vn 0.6628 0.7488 -0.0000
vn 1.0000 -0.0000 -0.0000
vn 0.6628 -0.7488 -0.0000
vn -0.2456 -0.9694 -0.0000
vn -0.9174 -0.3980 -0.0000
vn -0.5720 0.3980 0.7172
vn -0.1531 0.9694 0.1920
vn 0.4132 0.7488 -0.5182
vn 0.6235 -0.0000 -0.7818
vn 0.4132 -0.7488 -0.5182
vn -0.1531 -0.9694 0.1920
vn -0.5720 -0.3980 0.7172
vn 0.2041 0.3980 0.8944
vn 0.0546 0.9694 0.2394
vn -0.1475 0.7488 -0.6462
vn -0.2225 -0.0000 -0.9749
vn -0.1475 -0.7488 -0.6462
vn 0.0546 -0.9694 0.2394
vn 0.2041 -0.3980 0.8944
vn 0.8265 0.3980 0.3980
vn 0.2213 0.9694 0.1066
vn -0.5972 0.7488 -0.2876
vn -0.9010 -0.0000 -0.4339
vn -0.5972 -0.7488 -0.2876
vn 0.2213 -0.9694 0.1066
vn 0.8265 -0.3980 0.3980
vt 0.571429 0.571429
vt 0.571429 0.714286
vt 0.571429 0.857143
vt 0.571429 1.000000
vt 0.571429 -0.000000
vt 0.571429 0.142857
vt 0.571429 0.285714
vt 0.571429 0.428571
vt 0.714286 0.571429
vt 0.714286 0.714286
vt 0.714286 0.857143
vt 0.714286 1.000000
vt 0.714286 -0.000000
vt 0.714286 0.142857
vt 0.714286 0.285714
vt 0.714286 0.428571
vt 0.857143 0.571429
vt 0.857143 0.714286
vt 0.857143 0.857143
vt 0.857143 1.000000
vt 0.857143 -0.000000
vt 0.857143 0.142857
vt 0.857143 0.285714
vt 0.857143 0.428571
vt 1.000000 0.571429
vt -0.000000 0.571429
vt 1.000000 0.714286
vt -0.000000 0.714286
vt 1.000000 0.857143
vt -0.000000 0.857143
vt 1.000000 1.000000
vt 1.000000 -0.000000
vt -0.000000 1.000000
vt -0.000000 -0.000000
vt 1.000000 0.142857
vt -0.000000 0.142857
vt 1.000000 0.285714
vt -0.000000 0.285714
vt 1.000000 0.428571
vt -0.000000 0.428571
vt 0.142857 0.571429
vt 0.142857 0.714286
vt 0.142857 0.857143
vt 0.142857 1.000000
vt 0.142857 -0.000000
vt 0.142857 0.142857
vt 0.142857 0.285714
vt 0.142857 0.428571
vt 0.285714 0.571429
vt 0.285714 0.714286
vt 0.285714 0.857143
vt 0.285714 1.000000
vt 0.285714 -0.000000
vt 0.285714 0.142857
vt 0.285714 0.285714
vt 0.285714 0.428571
vt 0.428571 0.571429
vt 0.428571 0.714286
vt 0.428571 0.857143
vt 0.428571 1.000000
vt 0.428571 -0.000000
vt 0.428571 0.142857
vt 0.428571 0.285714
vt 0.428571 0.428571
s 0
f 1/1/1 8/9/1 9/10/1 2/2/1
f 2/2/2 9/10/2 10/11/2 3/3/2
f 3/3/3 10/11/3 11/12/3 4/4/3
f 4/5/4 11/13/4 12/14/4 5/6/4
f 5/6/5 12/14/5 13/15/5 6/7/5
f 6/7/6 13/15/6 14/16/6 7/8/6
f 7/8/7 14/16/7 8/9/7 1/1/7
f 8/9/8 15/17/8 16/18/8 9/10/8
f 9/10/9 16/18/9 17/19/9 10/11/9
f 10/11/10 17/19/10 18/20/10 11/12/10
f 11/13/11 18/21/11 19/22/11 12/14/11
f 12/14/12 19/22/12 20/23/12 13/15/12
f 13/15/13 20/23/13 21/24/13 14/16/13
f 14/16/14 21/24/14 15/17/14 8/9/14
f 15/17/15 22/25/15 23/27/15 16/18/15
f 16/18/16 23/27/16 24/29/16 17/19/16
f 17/19/17 24/29/17 25/31/17 18/20/17
f 18/21/18 25/32/18 26/35/18 19/22/18
f 19/22/19 26/35/19 27/37/19 20/23/19
f 20/23/20 27/37/20 28/39/20 21/24/20
f 21/24/21 28/39/21 22/25/21 15/17/21
f 22/26/22 29/41/22 30/42/22 23/28/22
f 23/28/23 30/42/23 31/43/23 24/30/23
f 24/30/24 31/43/24 32/44/24 25/33/24
f 25/34/25 32/45/25 33/46/25 26/36/25
f 26/36/26 33/46/26 34/47/26 27/38/26
f 27/38/27 34/47/27 35/48/27 28/40/27
f 28/40/28 35/48/28 29/41/28 22/26/28
f 29/41/29 36/49/29 37/50/29 30/42/29
f 30/42/30 37/50/30 38/51/30 31/43/30
f 31/43/31 38/51/31 39/52/31 32/44/31
f 32/45/32 39/53/32 40/54/32 33/46/32
f 33/46/33 40/54/33 41/55/33 34/47/33
f 34/47/34 41/55/34 42/56/34 35/48/34
f 35/48/35 42/56/35 36/49/35 29/41/35
f 36/49/36 43/57/36 44/58/36 37/50/36
f 37/50/37 44/58/37 45/59/37 38/51/37
f 38/51/38 45/59/38 46/60/38 39/52/38
f 39/53/39 46/61/39 47/62/39 40/54/39
f 40/54/40 47/62/40 48/63/40 41/55/40
f 41/55/41 48/63/41 49/64/41 42/56/41
f 42/56/42 49/64/42 43/57/42 36/49/42
f 43/57/43 1/1/43 2/2/43 44/58/43
f 44/58/44 2/2/44 3/3/44 45/59/44
f 45/59/45 3/3/45 4/4/45 46/60/45
f 46/61/46 4/5/46 5/6/46 47/62/46
f 47/62/47 5/6/47 6/7/47 48/63/47
f 48/63/48 6/7/48 7/8/48 49/64/48
f 49/64/49 7/8/49 1/1/49 43/57/49
