# Blender 3.5.1
# www.blender.org
mtllib torus77t.mtl
o Torus
v 1.249786 0.000000 -0.023126
v 1.155649 0.195458 -0.022734
v 0.944187 0.243732 -0.018574
v 0.774625 0.108471 -0.014334
v 0.774656 -0.108471 -0.012560
v 0.944269 -0.243732 -0.013769
v 1.155721 -0.195458 -0.018738
v 0.761148 0.000000 -0.991541
v 0.702761 0.195458 -0.917697
v 0.574169 0.243732 -0.749776
v 0.471764 0.108471 -0.614563
v 0.473170 -0.108471 -0.613481
v 0.577977 -0.243732 -0.746844
v 0.705930 -0.195458 -0.915262
v -0.300650 0.000000 -1.213305
v -0.279320 0.195458 -1.121616
v -0.228210 0.243732 -0.916381
v -0.186345 0.108471 -0.752014
v -0.184622 -0.108471 -0.752439
v -0.223543 -0.243732 -0.917531
v -0.275440 -0.195458 -1.122575
v -1.136052 0.000000 -0.521426
v -1.051068 0.195458 -0.480935
v -0.858742 0.243732 -0.392933
v -0.704132 0.108471 -0.323183
v -0.703390 -0.108471 -0.324795
v -0.856731 -0.243732 -0.397298
v -1.049398 -0.195458 -0.484566
v -1.115984 0.000000 0.563097
v -1.031340 0.195458 0.521900
v -0.842624 0.243732 0.426402
v -0.691694 0.108471 0.349011
v -0.692492 -0.108471 0.347426
v -0.844783 -0.243732 0.422108
v -1.033138 -0.195458 0.518330
v -0.255557 0.000000 1.223597
v -0.234992 0.195458 1.131733
v -0.191993 0.243732 0.924648
v -0.158396 0.108471 0.758393
v -0.160132 -0.108471 0.758029
v -0.196696 -0.243732 0.923658
v -0.238904 -0.195458 1.130914
v 0.797309 0.000000 0.962703
v 0.738309 0.195458 0.889349
v 0.603213 0.243732 0.726615
v 0.494177 0.108471 0.596690
v 0.492809 -0.108471 0.597820
v 0.599507 -0.243732 0.729675
v 0.735229 -0.195458 0.891896
vn 0.8199 0.3957 -0.4137
vn 0.2191 0.9694 -0.1109
vn -0.5907 0.7498 0.2980
vn -0.8938 0.0035 0.4484
vn -0.5941 -0.7476 0.2968
vn 0.2188 -0.9696 -0.1093
vn 0.8181 -0.4029 -0.4104
vn 0.1878 0.3957 -0.8990
vn 0.0499 0.9694 -0.2404
vn -0.1353 0.7498 0.6477
vn -0.2067 0.0035 0.9784
vn -0.1383 -0.7476 0.6496
vn 0.0509 -0.9696 -0.2392
vn 0.1892 -0.4029 -0.8955
vn -0.5858 0.3957 -0.7073
vn -0.1569 0.9694 -0.1889
vn 0.4220 0.7498 0.5096
vn 0.6361 0.0035 0.7716
vn 0.4216 -0.7476 0.5131
vn -0.1553 -0.9696 -0.1890
vn -0.5822 -0.4029 -0.7062
vn -0.9182 0.3957 0.0170
vn -0.2455 0.9694 0.0048
vn 0.6615 0.7498 -0.0122
vn 0.9999 0.0035 -0.0162
vn 0.6641 -0.7476 -0.0097
vn -0.2446 -0.9696 0.0036
vn -0.9151 -0.4029 0.0148
vn -0.5592 0.3957 0.7285
vn -0.1493 0.9694 0.1950
vn 0.4029 0.7498 -0.5248
vn 0.6107 0.0035 -0.7918
vn 0.4065 -0.7476 -0.5252
vn -0.1497 -0.9696 0.1934
vn -0.5590 -0.4029 0.7247
vn 0.2209 0.3957 0.8914
vn 0.0593 0.9694 0.2383
vn -0.1591 0.7498 -0.6422
vn -0.2383 0.0035 -0.9712
vn -0.1572 -0.7476 -0.6452
vn 0.0579 -0.9696 0.2376
vn 0.2181 -0.4029 0.8889
vn 0.8347 0.3957 0.3831
vn 0.2233 0.9694 0.1022
vn -0.6013 0.7498 -0.2760
vn -0.9079 0.0035 -0.4192
vn -0.6025 -0.7476 -0.2794
vn 0.2219 -0.9696 0.1029
vn 0.8309 -0.4029 0.3837
vn 0.8176 0.4005 -0.4137
vn -0.5922 0.7480 0.2997
vn -0.8928 -0.0035 0.4505
vn -0.5910 -0.7502 0.2965
vn 0.2202 -0.9692 -0.1105
vn 0.8208 -0.3935 -0.4141
vn 0.1863 0.4005 -0.8971
vn -0.1349 0.7480 0.6499
vn -0.2044 -0.0035 0.9789
vn -0.1367 -0.7502 0.6469
vn 0.0509 -0.9692 -0.2411
vn 0.1880 -0.3935 -0.8999
vn -0.5853 0.4005 -0.7050
vn 0.4240 0.7480 0.5107
vn 0.6378 -0.0035 0.7702
vn 0.4206 -0.7502 0.5102
vn -0.1567 -0.9692 -0.1901
vn -0.5864 -0.3935 -0.7080
vn -0.9161 0.4005 0.0180
vn 0.6636 0.7480 -0.0131
vn 0.9998 -0.0035 -0.0185
vn 0.6611 -0.7502 -0.0107
vn -0.2464 -0.9692 0.0040
vn -0.9192 -0.3935 0.0170
vn -0.5571 0.4005 0.7275
vn 0.4036 0.7480 -0.5270
vn 0.6089 -0.0035 -0.7932
vn 0.4038 -0.7502 -0.5235
vn -0.1505 -0.9692 0.1951
vn -0.5598 -0.3935 0.7292
vn 0.2214 0.4005 0.8891
vn -0.1604 0.7480 -0.6441
vn -0.2405 -0.0035 -0.9706
vn -0.1576 -0.7502 -0.6421
vn 0.0587 -0.9692 0.2393
vn 0.2211 -0.3935 0.8923
vn 0.8332 0.4005 0.3812
vn -0.6036 0.7480 -0.2762
vn -0.9088 -0.0035 -0.4171
vn -0.6003 -0.7502 -0.2772
vn 0.2237 -0.9692 0.1033
vn 0.8355 -0.3935 0.3835
vt 0.571429 0.571429
vt 0.571429 0.714286
vt 0.571429 0.857143
vt 0.571429 1.000000
vt 0.571429 -0.000000
vt 0.571429 0.142857
vt 0.571429 0.285714
vt 0.571429 0.428571
vt 0.714286 0.571429
vt 0.714286 0.714286
vt 0.714286 0.857143
vt 0.714286 1.000000
vt 0.714286 -0.000000
vt 0.714286 0.142857
vt 0.714286 0.285714
vt 0.714286 0.428571
vt 0.857143 0.571429
vt 0.857143 0.714286
vt 0.857143 0.857143
vt 0.857143 1.000000
vt 0.857143 -0.000000
vt 0.857143 0.142857
vt 0.857143 0.285714
vt 0.857143 0.428571
vt 1.000000 0.571429
vt -0.000000 0.571429
vt 1.000000 0.714286
vt -0.000000 0.714286
vt 1.000000 0.857143
vt -0.000000 0.857143
vt -0.000000 1.000000
vt 1.000000 1.000000
vt 1.000000 -0.000000
vt -0.000000 -0.000000
vt 1.000000 0.142857
vt -0.000000 0.142857
vt -0.000000 0.285714
vt 1.000000 0.285714
vt 1.000000 0.428571
vt -0.000000 0.428571
vt 0.142857 0.571429
vt 0.142857 0.714286
vt 0.142857 0.857143
vt 0.142857 1.000000
vt 0.142857 -0.000000
vt 0.142857 0.142857
vt 0.142857 0.285714
vt 0.142857 0.428571
vt 0.285714 0.571429
vt 0.285714 0.714286
vt 0.285714 0.857143
vt 0.285714 1.000000
vt 0.285714 -0.000000
vt 0.285714 0.142857
vt 0.285714 0.285714
vt 0.285714 0.428571
vt 0.428571 0.571429
vt 0.428571 0.714286
vt 0.428571 0.857143
vt 0.428571 1.000000
vt 0.428571 -0.000000
vt 0.428571 0.142857
vt 0.428571 0.285714
vt 0.428571 0.428571
s 0
f 8/9/1 2/2/1 1/1/1
f 2/2/2 10/11/2 3/3/2
f 3/3/3 11/12/3 4/4/3
f 4/5/4 12/14/4 5/6/4
f 5/6/5 13/15/5 6/7/5
f 13/15/6 7/8/6 6/7/6
f 14/16/7 1/1/7 7/8/7
f 15/17/8 9/10/8 8/9/8
f 16/18/9 10/11/9 9/10/9
f 10/11/10 18/20/10 11/12/10
f 11/13/11 19/22/11 12/14/11
f 12/14/12 20/23/12 13/15/12
f 20/23/13 14/16/13 13/15/13
f 21/24/14 8/9/14 14/16/14
f 22/25/15 16/18/15 15/17/15
f 23/27/16 17/19/16 16/18/16
f 17/19/17 25/32/17 18/20/17
f 18/21/18 26/35/18 19/22/18
f 19/22/19 27/38/19 20/23/19
f 27/38/20 21/24/20 20/23/20
f 28/39/21 15/17/21 21/24/21
f 29/41/22 23/28/22 22/26/22
f 30/42/23 24/30/23 23/28/23
f 24/30/24 32/44/24 25/31/24
f 25/34/25 33/46/25 26/36/25
f 26/36/26 34/47/26 27/37/26
f 34/47/27 28/40/27 27/37/27
f 35/48/28 22/26/28 28/40/28
f 36/49/29 30/42/29 29/41/29
f 37/50/30 31/43/30 30/42/30
f 31/43/31 39/52/31 32/44/31
f 32/45/32 40/54/32 33/46/32
f 33/46/33 41/55/33 34/47/33
f 41/55/34 35/48/34 34/47/34
f 42/56/35 29/41/35 35/48/35
f 43/57/36 37/50/36 36/49/36
f 37/50/37 45/59/37 38/51/37
f 38/51/38 46/60/38 39/52/38
f 39/53/39 47/62/39 40/54/39
f 40/54/40 48/63/40 41/55/40
f 48/63/41 42/56/41 41/55/41
f 49/64/42 36/49/42 42/56/42
f 1/1/43 44/58/43 43/57/43
f 2/2/44 45/59/44 44/58/44
f 45/59/45 4/4/45 46/60/45
f 46/61/46 5/6/46 47/62/46
f 47/62/47 6/7/47 48/63/47
f 6/7/48 49/64/48 48/63/48
f 7/8/49 43/57/49 49/64/49
f 8/9/50 9/10/50 2/2/50
f 2/2/2 9/10/2 10/11/2
f 3/3/51 10/11/51 11/12/51
f 4/5/52 11/13/52 12/14/52
f 5/6/53 12/14/53 13/15/53
f 13/15/54 14/16/54 7/8/54
f 14/16/55 8/9/55 1/1/55
f 15/17/56 16/18/56 9/10/56
f 16/18/9 17/19/9 10/11/9
f 10/11/57 17/19/57 18/20/57
f 11/13/58 18/21/58 19/22/58
f 12/14/59 19/22/59 20/23/59
f 20/23/60 21/24/60 14/16/60
f 21/24/61 15/17/61 8/9/61
f 22/25/62 23/27/62 16/18/62
f 23/27/16 24/29/16 17/19/16
f 17/19/63 24/29/63 25/32/63
f 18/21/64 25/33/64 26/35/64
f 19/22/65 26/35/65 27/38/65
f 27/38/66 28/39/66 21/24/66
f 28/39/67 22/25/67 15/17/67
f 29/41/68 30/42/68 23/28/68
f 30/42/23 31/43/23 24/30/23
f 24/30/69 31/43/69 32/44/69
f 25/34/70 32/45/70 33/46/70
f 26/36/71 33/46/71 34/47/71
f 34/47/72 35/48/72 28/40/72
f 35/48/73 29/41/73 22/26/73
f 36/49/74 37/50/74 30/42/74
f 37/50/30 38/51/30 31/43/30
f 31/43/75 38/51/75 39/52/75
f 32/45/76 39/53/76 40/54/76
f 33/46/77 40/54/77 41/55/77
f 41/55/78 42/56/78 35/48/78
f 42/56/79 36/49/79 29/41/79
f 43/57/80 44/58/80 37/50/80
f 37/50/37 44/58/37 45/59/37
f 38/51/81 45/59/81 46/60/81
f 39/53/82 46/61/82 47/62/82
f 40/54/83 47/62/83 48/63/83
f 48/63/84 49/64/84 42/56/84
f 49/64/85 43/57/85 36/49/85
f 1/1/86 2/2/86 44/58/86
f 2/2/44 3/3/44 45/59/44
f 45/59/87 3/3/87 4/4/87
f 46/61/88 4/5/88 5/6/88
f 47/62/89 5/6/89 6/7/89
f 6/7/90 7/8/90 49/64/90
f 7/8/91 1/1/91 43/57/91
