# Blender 4.0.2
# www.blender.org
mtllib weird_eulerian.mtl
o Plane
v -1.000000 0.000000 1.000000
v 1.000000 0.000000 1.000000
v -1.000000 0.000000 -1.000000
v 1.000000 0.000000 -1.000000
v -0.362442 0.000000 -0.362442
v -0.362442 0.000000 0.362442
v 0.362442 0.000000 0.362442
v 0.362442 0.000000 -0.362442
v -1.000000 0.777148 1.000000
v 1.000000 0.777148 1.000000
v -1.000000 0.777148 -1.000000
v 1.000000 0.777148 -1.000000
v -0.270713 0.777148 0.270713
v 0.270713 0.777148 0.270713
v -0.270713 0.777148 -0.270713
v 0.270713 0.777148 -0.270713
v -3.749786 0.000000 1.000000
v -1.749786 0.000000 1.000000
v -3.749786 0.000000 -1.000000
v -1.749786 0.000000 -1.000000
v -3.112228 0.000000 -0.362442
v -3.112228 0.000000 0.362442
v -2.387345 0.000000 0.362442
v -2.387345 0.000000 -0.362442
v -3.749786 0.777148 1.000000
v -1.749786 0.777148 1.000000
v -3.749786 0.777148 -1.000000
v -1.749786 0.777148 -1.000000
v -3.020499 0.777148 0.270713
v -2.479074 0.777148 0.270713
v -3.020499 0.777148 -0.270713
v -2.479074 0.777148 -0.270713
v -0.191423 1.627633 -0.270713
v -0.191423 1.627633 0.270713
v 0.191423 2.010478 0.270713
v 0.191423 2.010478 -0.270713
v -2.941209 2.010478 -0.270713
v -2.941209 2.010478 0.270713
v -2.558364 1.627633 0.270713
v -2.558364 1.627633 -0.270713
v -1.374893 1.627633 -0.270713
v -1.374893 2.010478 -0.270713
v -1.374893 2.010478 0.270713
v -1.374893 1.627633 0.270713
v -1.374893 0.403686 0.239048
v -1.374893 0.403686 -0.239048
v -2.321074 0.493602 0.000000
v -0.428712 0.493602 0.000000
v -1.374893 0.528977 0.000000
v 0.000000 -0.722199 0.000000
v -2.749786 -0.722199 0.000000
vn -0.0000 0.4485 0.8938
vn -0.0000 1.0000 -0.0000
vn -0.0000 -0.0000 1.0000
vn -0.0000 -0.0000 -1.0000
vn -1.0000 -0.0000 -0.0000
vn 1.0000 -0.0000 -0.0000
vn -0.0000 -1.0000 -0.0000
vn 0.9957 -0.0928 -0.0000
vn -0.0000 0.4485 -0.8938
vn -0.9979 -0.0642 -0.0000
vn -0.9957 -0.0928 -0.0000
vn 0.9979 -0.0642 -0.0000
vn -0.0374 0.9993 -0.0000
vn 0.0374 0.9993 -0.0000
vn -0.5293 0.8484 -0.0000
vn 0.5293 0.8484 -0.0000
vn -0.8938 0.4485 -0.0000
vn 0.8938 0.4485 -0.0000
vt 0.681221 0.681221
vt 0.318779 0.681221
vt 0.318779 0.318779
vt 0.000000 1.000000
vt 0.000000 0.000000
vt 0.681221 0.318779
vt 1.000000 0.000000
vt 1.000000 1.000000
vt 0.500000 0.000000
vt 0.500000 1.000000
vt 0.318779 0.500000
vt 0.681221 0.500000
vt 0.681221 0.318779
s 0
f 8/1/1 5/2/1 50/1/1
f 6/3/2 5/2/2 3/4/2 1/5/2
f 7/6/2 6/3/2 1/5/2 2/7/2
f 8/1/2 7/6/2 2/7/2 4/8/2
f 5/2/2 8/1/2 4/8/2 3/4/2
f 3/4/3 4/8/3 12/8/3 11/4/3
f 2/7/4 1/5/4 9/5/4 10/7/4
f 4/8/5 2/7/5 10/7/5 12/8/5
f 1/5/6 3/4/6 11/4/6 9/5/6
f 12/8/7 10/7/7 14/7/7 16/8/7
f 9/5/7 11/4/7 15/4/7 13/5/7
f 11/4/7 12/8/7 16/8/7 15/4/7
f 10/7/7 9/5/7 13/5/7 14/7/7
f 13/5/8 15/4/8 33/4/8 34/5/8
f 22/3/9 23/6/9 51/3/9
f 22/3/2 21/2/2 19/4/2 17/5/2
f 23/6/2 22/3/2 17/5/2 18/7/2
f 24/1/2 23/6/2 18/7/2 20/8/2
f 21/2/2 24/1/2 20/8/2 19/4/2
f 19/4/3 20/8/3 28/8/3 27/4/3
f 18/7/4 17/5/4 25/5/4 26/7/4
f 20/8/5 18/7/5 26/7/5 28/8/5
f 17/5/6 19/4/6 27/4/6 25/5/6
f 28/8/7 26/7/7 30/7/7 32/8/7
f 25/5/7 27/4/7 31/4/7 29/5/7
f 27/4/7 28/8/7 32/8/7 31/4/7
f 26/7/7 25/5/7 29/5/7 30/7/7
f 31/4/3 32/8/3 40/8/3 37/4/3
f 44/9/2 34/5/2 33/4/2 41/10/2
f 15/4/3 16/8/3 36/8/3 33/4/3
f 14/7/4 13/5/4 34/5/4 35/7/4
f 16/8/10 14/7/10 35/7/10 36/8/10
f 38/5/4 43/9/4 44/9/4 39/7/4
f 30/7/4 29/5/4 38/5/4 39/7/4
f 32/8/11 30/7/11 39/7/11 40/8/11
f 29/5/12 31/4/12 37/4/12 38/5/12
f 40/8/3 41/10/3 42/10/3 37/4/3
f 39/7/2 44/9/2 41/10/2 40/8/2
f 41/10/3 33/4/3 36/8/3 42/10/3
f 43/9/4 35/7/4 34/5/4 44/9/4
f 42/10/7 36/8/7 35/7/7 43/9/7
f 37/4/7 42/10/7 43/9/7 38/5/7
f 47/3/13 45/3/13 49/11/13 46/2/13
f 48/1/14 46/1/14 49/12/14 45/6/14
f 21/2/15 22/3/15 47/2/15
f 7/6/16 8/1/16 48/13/16
f 6/3/9 7/6/9 50/3/9
f 23/6/17 24/1/17 51/6/17
f 21/2/18 22/3/18 51/2/18
f 7/6/17 8/1/17 50/6/17
f 5/2/18 6/3/18 50/2/18
f 24/1/1 21/2/1 51/1/1
l 8 46
l 21 46
l 7 45
l 45 46
l 22 45
