# Blender 3.5.1
# www.blender.org
o 5x5 torus
v 1.250000 0.000000 0.000000
v 1.077254 0.237764 0.000000
v 0.797746 0.146946 0.000000
v 0.797746 -0.146946 0.000000
v 1.077254 -0.237764 0.000000
v 0.386271 0.000000 -1.188821
v 0.332890 0.237764 -1.024530
v 0.246517 0.146946 -0.758701
v 0.246517 -0.146946 -0.758701
v 0.332890 -0.237764 -1.024530
v -1.011271 0.000000 -0.734731
v -0.871517 0.237764 -0.633194
v -0.645390 0.146946 -0.468903
v -0.645390 -0.146946 -0.468903
v -0.871517 -0.237764 -0.633194
v -1.011271 0.000000 0.734731
v -0.871517 0.237764 0.633194
v -0.645390 0.146946 0.468903
v -0.645390 -0.146946 0.468903
v -0.871517 -0.237764 0.633194
v 0.386271 0.000000 1.188821
v 0.332890 0.237764 1.024530
v 0.246517 0.146946 0.758701
v 0.246517 -0.146946 0.758701
v 0.332890 -0.237764 1.024530
vn 0.6975 0.5067 -0.5067
vn -0.3015 0.9280 0.2191
vn -0.8090 -0.0000 0.5878
vn -0.3015 -0.9280 0.2191
vn 0.6975 -0.5067 -0.5067
vn -0.2664 0.5067 -0.8199
vn 0.1152 0.9280 0.3544
vn 0.3090 -0.0000 0.9511
vn 0.1152 -0.9280 0.3544
vn -0.2664 -0.5067 -0.8199
vn -0.8621 0.5067 -0.0000
vn 0.3727 0.9280 -0.0000
vn 1.0000 -0.0000 -0.0000
vn 0.3727 -0.9280 -0.0000
vn -0.8621 -0.5067 -0.0000
vn -0.2664 0.5067 0.8199
vn 0.1152 0.9280 -0.3544
vn 0.3090 -0.0000 -0.9511
vn 0.1152 -0.9280 -0.3544
vn -0.2664 -0.5067 0.8199
vn 0.6975 0.5067 0.5067
vn -0.3015 0.9280 -0.2191
vn -0.8090 -0.0000 -0.5878
vn -0.3015 -0.9280 -0.2191
vn 0.6975 -0.5067 0.5067
vt 0.600000 0.600000
vt 0.600000 0.800000
vt 0.600000 1.000000
vt 0.600000 0.000000
vt 0.600000 0.200000
vt 0.600000 0.400000
vt 0.800000 0.600000
vt 0.800000 0.800000
vt 0.800000 1.000000
vt 0.800000 0.000000
vt 0.800000 0.200000
vt 0.800000 0.400000
vt 1.000000 0.600000
vt 0.000000 0.600000
vt 1.000000 0.800000
vt 0.000000 0.800000
vt 1.000000 1.000000
vt 1.000000 0.000000
vt 0.000000 1.000000
vt 0.000000 0.000000
vt 1.000000 0.200000
vt 0.000000 0.200000
vt 1.000000 0.400000
vt 0.000000 0.400000
vt 0.200000 0.600000
vt 0.200000 0.800000
vt 0.200000 1.000000
vt 0.200000 0.000000
vt 0.200000 0.200000
vt 0.200000 0.400000
vt 0.400000 0.600000
vt 0.400000 0.800000
vt 0.400000 1.000000
vt 0.400000 0.000000
vt 0.400000 0.200000
vt 0.400000 0.400000
s 0
f 1/1/1 6/7/1 7/8/1 2/2/1
f 2/2/2 7/8/2 8/9/2 3/3/2
f 3/4/3 8/10/3 9/11/3 4/5/3
f 4/5/4 9/11/4 10/12/4 5/6/4
f 5/6/5 10/12/5 6/7/5 1/1/5
f 6/7/6 11/13/6 12/15/6 7/8/6
f 7/8/7 12/15/7 13/17/7 8/9/7
f 8/10/8 13/18/8 14/21/8 9/11/8
f 9/11/9 14/21/9 15/23/9 10/12/9
f 10/12/10 15/23/10 11/13/10 6/7/10
f 11/14/11 16/25/11 17/26/11 12/16/11
f 12/16/12 17/26/12 18/27/12 13/19/12
f 13/20/13 18/28/13 19/29/13 14/22/13
f 14/22/14 19/29/14 20/30/14 15/24/14
f 15/24/15 20/30/15 16/25/15 11/14/15
f 16/25/16 21/31/16 22/32/16 17/26/16
f 17/26/17 22/32/17 23/33/17 18/27/17
f 18/28/18 23/34/18 24/35/18 19/29/18
f 19/29/19 24/35/19 25/36/19 20/30/19
f 20/30/20 25/36/20 21/31/20 16/25/20
f 21/31/21 1/1/21 2/2/21 22/32/21
f 22/32/22 2/2/22 3/3/22 23/33/22
f 23/34/23 3/4/23 4/5/23 24/35/23
f 24/35/24 4/5/24 5/6/24 25/36/24
f 25/36/25 5/6/25 1/1/25 21/31/25
