# Blender v3.2.2 OBJ File: ''
# www.blender.org
o octahedron
v 1.000000 0.000000 0.000000
v -0.000000 0.000000 1.000000
v 0.000000 1.002129 -0.000000
v -0.000000 0.000000 -1.000000
v -1.000000 0.000000 0.000000
v -0.000000 -1.002129 -0.000000
vt 0.250000 0.490000
vt 0.250000 0.250000
vt 0.490000 0.250000
vt 0.250000 0.010000
vt 0.010000 0.250000
vt 0.250000 0.250000
vt 0.490000 0.250000
vt 0.010000 0.250000
vn 0.5778 0.5765 -0.5778
vn 0.5778 0.5765 0.5778
vn -0.5778 0.5765 0.5778
vn -0.5778 0.5765 -0.5778
vn -0.5778 -0.5765 -0.5778
vn -0.5778 -0.5765 0.5778
vn 0.5778 -0.5765 0.5778
vn 0.5778 -0.5765 -0.5778
usemtl None
s off
f 4/1/1 3/2/1 1/3/1
f 1/3/2 3/2/2 2/4/2
f 2/4/3 3/2/3 5/5/3
f 5/5/4 3/2/4 4/1/4
f 4/1/5 6/6/5 5/7/5
f 5/7/6 6/6/6 2/4/6
f 2/4/7 6/6/7 1/8/7
f 1/8/8 6/6/8 4/1/8
